<svg xmlns="http://www.w3.org/2000/svg" viewBox="0 0 32 32" fill="none">
  <!-- Hull -->
  <path d="M3 20 L5 26 Q16 29 27 26 L29 20 Z" fill="#0D2A52"/>
  <!-- Deck -->
  <rect x="5" y="17" width="22" height="4" rx="1" fill="#0D2A52"/>
  <!-- Bridge / Superstructure -->
  <rect x="6" y="11" width="8" height="7" rx="1" fill="#0D2A52"/>
  <!-- Bridge windows -->
  <rect x="7.5" y="12.5" width="2" height="2" rx="0.3" fill="#C9A84C"/>
  <rect x="10.5" y="12.5" width="2" height="2" rx="0.3" fill="#C9A84C"/>
  <!-- Antenna / Mast -->
  <rect x="9.5" y="7" width="1" height="5" rx="0.5" fill="#0D2A52"/>
  <!-- Cargo containers row 1 -->
  <rect x="16" y="14" width="4" height="3" rx="0.5" fill="#C9A84C"/>
  <rect x="21" y="14" width="4" height="3" rx="0.5" fill="#1A5276"/>
  <!-- Cargo containers row 2 -->
  <rect x="16" y="17" width="4" height="3" rx="0.5" fill="#1A5276"/>
  <rect x="21" y="17" width="4" height="3" rx="0.5" fill="#C9A84C"/>
  <!-- Water waves -->
  <path d="M2 27 Q7 25 12 27 Q17 29 22 27 Q27 25 30 27" stroke="#1A5276" stroke-width="1.2" stroke-linecap="round" fill="none" opacity="0.6"/>
</svg>